<svg width="32" height="32" viewBox="0 0 32 32" fill="none" xmlns="http://www.w3.org/2000/svg">
  <!-- Background circle -->
  <circle cx="16" cy="16" r="16" fill="#0f172a"/>
  
  <!-- Car icon -->
  <path d="M8 20C8 21.1046 8.89543 22 10 22C11.1046 22 12 21.1046 12 20C12 18.8954 11.1046 18 10 18C8.89543 18 8 18.8954 8 20Z" fill="white"/>
  <path d="M20 20C20 21.1046 20.8954 22 22 22C23.1046 22 24 21.1046 24 20C24 18.8954 23.1046 18 22 18C20.8954 18 20 18.8954 20 20Z" fill="white"/>
  
  <!-- Car body -->
  <path d="M6 16L7 14H25L26 16V18H6V16Z" fill="white"/>
  
  <!-- Car roof -->
  <path d="M9 14V12C9 11.4477 9.44772 11 10 11H22C22.5523 11 23 11.4477 23 12V14" stroke="white" stroke-width="1.5" fill="none"/>
  
  <!-- Speed lines -->
  <path d="M4 10L6 12" stroke="white" stroke-width="1" opacity="0.7"/>
  <path d="M4 8L7 11" stroke="white" stroke-width="1" opacity="0.5"/>
  <path d="M4 6L8 10" stroke="white" stroke-width="1" opacity="0.3"/>
</svg>

